<svg xmlns="http://www.w3.org/2000/svg" viewBox="0 0 48 60" x="0px" y="0px"><title>Namaste hand</title><g data-name="Namaste hand"><path d="M21,19a2,2,0,0,0-2,2v6a1,1,0,0,1-2,0V21a4,4,0,0,1,4.21-4c.1-.1,0,.13,1.51-13.52a2.24,2.24,0,0,0-4.29-1.1L12.89,15.85c-1.19,2.83-.77,4,0,15.78a2,2,0,0,1-1.16,1.95L0,39l11,8,9.84-8.2C23.63,36.48,23,34.94,23,21A2,2,0,0,0,21,19Z"/><path d="M36.25,33.58a2,2,0,0,1-1.16-1.95l.76-11.31c.2-3.07-.35-3.52-6.28-17.93a2.23,2.23,0,0,0-4.3.84c0,.1,1.42,13.68,1.52,13.78A4,4,0,0,1,31,21v6a1,1,0,0,1-2,0V21a2,2,0,0,0-3.41-1.41c-.82.79-.59.38-.59,14.6a6,6,0,0,0,2.16,4.61L37,47l11-8Z"/></g><text x="0" y="63" fill="#000000" font-size="5px" font-weight="bold" font-family="'Helvetica Neue', Helvetica, Arial-Unicode, Arial, Sans-serif">Created by tezar tantular</text><text x="0" y="68" fill="#000000" font-size="5px" font-weight="bold" font-family="'Helvetica Neue', Helvetica, Arial-Unicode, Arial, Sans-serif">from the Noun Project</text></svg>